<?xml version="1.0" encoding="UTF-8" standalone="no"?>
<svg width="374px" height="72px" viewBox="0 0 374 72" version="1.1" xmlns="http://www.w3.org/2000/svg" xmlns:xlink="http://www.w3.org/1999/xlink">
    <!-- Generator: Sketch 40.3 (33839) - http://www.bohemiancoding.com/sketch -->
    <title>Group 4 Copy 5</title>
    <desc>Created with Sketch.</desc>
    <defs></defs>
    <g id="Page-1" stroke="none" stroke-width="1" fill="none" fill-rule="evenodd">
        <g id="Group-4-Copy-5" fill="#0085E5">
            <path d="M26.8045837,14.262357 C32.7947736,14.262357 37.1685631,15.5935103 43.2538354,19.6820527 C44.8702359,20.6328765 45.5358126,20.0623822 46.391554,18.5410641 L49.7194373,12.9312037 C50.4800963,11.4098856 50.7653435,10.6492266 49.2440254,9.69840276 C41.9226821,5.2295309 35.647245,2.56722426 25.8537599,2.56722426 C7.40777819,2.56722426 1.03725873,15.2131808 1.03725873,23.8656774 C1.03725873,37.3673753 12.7323915,41.2657529 23.0963709,42.5018239 C32.889856,43.7378948 38.7849636,45.1641305 38.7849636,51.53465 C38.7849636,57.1445104 34.125927,59.5215699 26.0439247,59.5215699 C20.0537347,59.5215699 13.2078034,58.0002518 7.12253105,54.1018742 C5.60121297,53.1510504 4.84055393,53.6264623 3.98481251,55.1477804 L0.656929207,60.7576408 C-0.198812213,62.3740413 -0.388976973,63.0396179 1.13234111,64.0855241 C8.07335485,68.8396431 16.7258514,71.2167026 26.9947485,71.2167026 C43.4440002,71.2167026 51.906332,61.5182999 51.906332,50.8690733 C51.906332,36.3214692 40.401364,32.6132563 29.1816432,31.282103 C19.86357,30.1411145 14.1586272,29.0952083 14.1586272,23.3902655 C14.1586272,18.9213936 16.2504395,14.262357 26.8045837,14.262357 Z M70.721457,24.0558421 C69.8657155,22.4394417 69.3903036,21.773865 68.0591503,21.773865 L64.0656904,21.773865 C62.3542075,21.773865 61.7837132,22.2492769 61.7837132,24.0558421 L61.7837132,67.8888193 C61.7837132,69.6953845 62.3542075,70.1707964 64.0656904,70.1707964 L72.1476927,70.1707964 C73.9542579,70.1707964 74.4296698,69.6003022 74.4296698,67.8888193 L74.4296698,45.6395424 C74.4296698,36.7968811 77.1870588,32.0427621 83.6526606,32.0427621 C89.8330153,32.0427621 92.495322,36.2263868 92.495322,45.54446 L92.495322,67.8888193 C92.495322,69.6953845 93.0658163,70.1707964 94.7772991,70.1707964 L102.859301,70.1707964 C104.665867,70.1707964 105.141279,69.6003022 105.141279,67.8888193 L105.141279,42.8821534 C105.141279,25.9574897 97.5346881,20.7279588 86.8854616,20.7279588 C79.4690359,20.7279588 75.6657407,24.8165012 72.3378574,28.8099611 L70.721457,24.0558421 Z M112.736683,46.0198719 C112.736683,59.9018994 124.051486,71.2167026 137.933513,71.2167026 C151.815541,71.2167026 163.130344,59.9018994 163.130344,46.0198719 C163.130344,32.1378444 151.815541,20.7279588 137.933513,20.7279588 C124.051486,20.7279588 112.736683,32.1378444 112.736683,46.0198719 Z M137.933513,60.1871465 C130.9925,60.1871465 125.287557,54.1018742 125.287557,46.0198719 C125.287557,37.9378696 130.9925,32.0427621 137.933513,32.0427621 C144.779445,32.0427621 150.484387,37.9378696 150.484387,46.0198719 C150.484387,54.1018742 144.779445,60.1871465 137.933513,60.1871465 Z M179.378245,23.6755126 C178.902833,22.1541945 178.142174,21.773865 176.620856,21.773865 L166.922453,21.773865 C165.306052,21.773865 165.020805,22.3443593 165.781464,24.0558421 L180.899563,68.8396431 C181.470057,70.3609612 182.040551,71.1216202 182.706128,71.1216202 L183.371705,71.1216202 C184.037281,71.1216202 184.702858,70.3609612 185.463517,68.8396431 L200.201286,39.1739406 L214.843972,68.8396431 C215.699714,70.3609612 216.270208,71.1216202 216.935785,71.1216202 L217.696444,71.1216202 C218.266938,71.1216202 219.027597,70.3609612 219.503009,68.8396431 L234.621107,24.0558421 C235.381767,22.3443593 235.096519,21.773865 233.480119,21.773865 L223.781716,21.773865 C222.070233,21.773865 221.309574,22.2492769 220.834162,24.0558421 L214.178396,45.4493776 L202.673428,22.7246888 C201.912769,21.4886179 201.627522,20.5377941 200.581615,20.5377941 L199.916039,20.5377941 C198.77505,20.5377941 198.394721,21.5837003 197.729144,22.7246888 L186.224176,45.4493776 L179.378245,23.6755126 Z M268.364166,33.278833 C270.075649,33.278833 270.551061,32.8985035 270.836308,31.0919383 L272.072379,22.8197712 C272.357626,21.2984531 272.167461,20.7279588 270.075649,20.7279588 C259.236258,20.7279588 255.432962,25.2919131 252.485409,30.4263616 L250.013267,24.0558421 C249.157525,22.3443593 248.682113,21.773865 247.35096,21.773865 L243.3575,21.773865 C241.646017,21.773865 241.075523,22.2492769 241.075523,24.0558421 L241.075523,67.8888193 C241.075523,69.6953845 241.646017,70.1707964 243.3575,70.1707964 L251.439502,70.1707964 C253.246068,70.1707964 253.72148,69.6003022 253.72148,67.8888193 L253.72148,46.8756133 C253.72148,39.6493525 258.190351,33.278833 268.364166,33.278833 Z M274.438252,46.0198719 C274.438252,59.9018994 285.753055,71.2167026 299.635083,71.2167026 C313.51711,71.2167026 324.831913,59.9018994 324.831913,46.0198719 C324.831913,32.1378444 313.51711,20.7279588 299.635083,20.7279588 C285.753055,20.7279588 274.438252,32.1378444 274.438252,46.0198719 Z M299.635083,60.1871465 C292.694069,60.1871465 286.989126,54.1018742 286.989126,46.0198719 C286.989126,37.9378696 292.694069,32.0427621 299.635083,32.0427621 C306.481014,32.0427621 312.185957,37.9378696 312.185957,46.0198719 C312.185957,54.1018742 306.481014,60.1871465 299.635083,60.1871465 Z M334.233883,67.8888193 C334.233883,69.6953845 334.709295,70.1707964 336.51586,70.1707964 L344.597862,70.1707964 C346.404427,70.1707964 346.974922,69.6953845 346.974922,67.8888193 L346.974922,2.28197712 C346.974922,0.57049428 346.404427,0 344.597862,0 L336.51586,0 C334.709295,0 334.233883,0.4754119 334.233883,2.28197712 L334.233883,67.8888193 Z M360.275269,67.8888193 C360.275269,69.6953845 360.75068,70.1707964 362.557246,70.1707964 L370.639248,70.1707964 C372.445813,70.1707964 373.016308,69.6953845 373.016308,67.8888193 L373.016308,2.28197712 C373.016308,0.57049428 372.445813,0 370.639248,0 L362.557246,0 C360.75068,0 360.275269,0.4754119 360.275269,2.28197712 L360.275269,67.8888193 Z" id="Snowroll-Copy-2"></path>
        </g>
    </g>
</svg>