<?xml version="1.0" encoding="UTF-8" standalone="no"?>
<svg width="672px" height="304px" viewBox="0 0 672 304" version="1.1" xmlns="http://www.w3.org/2000/svg" xmlns:xlink="http://www.w3.org/1999/xlink">
    <!-- Generator: Sketch 40.3 (33839) - http://www.bohemiancoding.com/sketch -->
    <title>logo</title>
    <desc>Created with Sketch.</desc>
    <defs></defs>
    <g id="Page-1" stroke="none" stroke-width="1" fill="none" fill-rule="evenodd">
        <g id="logo">
            <path d="M395.238335,221 L425.002969,221 C439.920745,221 452,208.911688 452,194 C452,179.085033 439.913018,167 425.002969,167 L403.136127,167 L345.494165,167 C337.489259,167 331,160.50989 331,152.5 C331,144.491871 337.490392,138 345.494165,138 L422.934799,138 L547.99041,138 C562.910284,138 575,125.911688 575,111 C575,96.0850331 562.907395,84 547.99041,84 L407.741223,84 L330.494165,84 C322.489259,84 316,77.5098896 316,69.5 C316,61.4918711 322.490392,55 330.494165,55 L377.512889,55 L407.997983,55 C422.919928,55 435,42.9116882 435,28 C435,13.0850331 422.910785,1 407.997983,1 L247.525105,1 C241.773102,0.339459585 235.923444,0 229.994503,0 L152.005497,0 C68.0462204,0 0,68.052718 0,152 C0,235.94209 68.0551789,304 152.005497,304 L229.494308,304 L470.005887,304 C484.908822,304 497,291.911688 497,277 C497,262.085033 484.914324,250 470.005887,250 L405.35067,250 L345.494165,250 C337.489259,250 331,243.50989 331,235.5 C331,227.491871 337.490392,221 345.494165,221 L395.238335,221 Z M539,59 C552.254834,59 563,48.254834 563,35 C563,21.745166 552.254834,11 539,11 C525.745166,11 515,21.745166 515,35 C515,48.254834 525.745166,59 539,59 Z M655,121 C664.388841,121 672,113.388841 672,104 C672,94.6111593 664.388841,87 655,87 C645.611159,87 638,94.6111593 638,104 C638,113.388841 645.611159,121 655,121 Z M554,213 C562.284271,213 569,206.284271 569,198 C569,189.715729 562.284271,183 554,183 C545.715729,183 539,189.715729 539,198 C539,206.284271 545.715729,213 554,213 Z M527.5,277 C533.851275,277 539,271.851275 539,265.5 C539,259.148725 533.851275,254 527.5,254 C521.148725,254 516,259.148725 516,265.5 C516,271.851275 521.148725,277 527.5,277 Z" id="Combined-Shape" fill="#1A86E3"></path>
            <circle id="Oval-6-Copy-4" fill="#FFFFFF" cx="156" cy="152" r="127"></circle>
            <ellipse id="Oval-2-Copy-10" fill="#0085E5" cx="57" cy="107" rx="13" ry="21"></ellipse>
            <circle id="Oval-2-Copy-11" fill="#0085E5" cx="148.5" cy="106.5" r="23.5"></circle>
            <path d="M80.4586488,133.910524 C86.2498418,133.910524 90.9445312,129.005686 90.9445312,122.955262 C90.9445312,116.904838 86.2498418,112 80.4586488,112 C74.6674559,112 29,116.904838 29,122.955262 C29,129.005686 74.6674559,133.910524 80.4586488,133.910524 Z" id="Oval-3-Copy-5" fill="#EA6510"></path>
        </g>
    </g>
</svg>