<?xml version="1.0" encoding="UTF-8" standalone="no"?>
<svg width="20px" height="19px" viewBox="0 0 20 19" version="1.1" xmlns="http://www.w3.org/2000/svg" xmlns:xlink="http://www.w3.org/1999/xlink">
    <!-- Generator: Sketch 42 (36781) - http://www.bohemiancoding.com/sketch -->
    <title>push</title>
    <desc>Created with Sketch.</desc>
    <defs></defs>
    <g id="Page-1" stroke="none" stroke-width="1" fill="none" fill-rule="evenodd">
        <g id="iPhone-7-Copy-2" transform="translate(-188.000000, -326.000000)" fill="#B6B7C3">
            <g id="push" transform="translate(188.000000, 325.000000)">
                <g id="_98" transform="translate(0.039000, 0.500000)">
                    <rect id="rectangle" x="6.905" y="16.283" width="1.857" height="2.787"></rect>
                    <rect id="rectangle-2" x="10.618" y="16.283" width="1.857" height="2.787"></rect>
                    <path d="M15.208,9.3 C14.738,4.532 10.45,1.1 10.257,0.948 L9.688,0.502 L9.114,0.953 C8.921,1.106 4.634,4.537 4.163,9.305 L0.4,12.1 L0.4,15.353 L18.965,15.353 L18.965,12.1 L15.208,9.3 Z M2.261,13.5 L2.261,13.04 L4.246,11.56 C4.35483397,12.2247316 4.53073206,12.8767272 4.771,13.506 L2.261,13.506 L2.261,13.5 Z M12.598,13.5 L6.777,13.5 C6.26961447,12.4524086 5.99661419,11.3068312 5.977,10.143 C5.977,6.821 8.522,4.029 9.69,2.92 C10.858,4.029 13.403,6.82 13.403,10.143 C13.3824494,11.3070557 13.1084228,12.4526441 12.6,13.5 L12.598,13.5 Z M17.113,13.5 L14.6,13.5 C14.8402679,12.8707272 15.016166,12.2187316 15.125,11.554 L17.11,13.034 L17.113,13.5 Z" id="path"></path>
                    <path d="M9.687,7 C8.1477824,7 6.9,8.2477824 6.9,9.787 C6.9,11.3262176 8.1477824,12.574 9.687,12.574 C11.2262176,12.574 12.474,11.3262176 12.474,9.787 C12.4723466,8.2484678 11.2255322,7.00165345 9.687,7 L9.687,7 Z M9.687,10.713 C9.1728229,10.713 8.756,10.2961771 8.756,9.782 C8.756,9.2678229 9.1728229,8.851 9.687,8.851 C10.2011771,8.851 10.618,9.2678229 10.618,9.782 C10.6169,10.2957208 10.2007208,10.7119 9.687,10.713 Z" id="path-2"></path>
                </g>
            </g>
        </g>
    </g>
</svg>