<?xml version="1.0" encoding="UTF-8" standalone="no"?>
<svg width="29px" height="29px" viewBox="0 0 29 29" version="1.1" xmlns="http://www.w3.org/2000/svg" xmlns:xlink="http://www.w3.org/1999/xlink">
    <!-- Generator: Sketch 42 (36781) - http://www.bohemiancoding.com/sketch -->
    <title>voice image tag copy</title>
    <desc>Created with Sketch.</desc>
    <defs></defs>
    <g id="Page-1" stroke="none" stroke-width="1" fill="none" fill-rule="evenodd">
        <g id="iPhone-7-Copy-2" transform="translate(-12.000000, -346.000000)">
            <g id="voice-image-tag-copy" transform="translate(12.000000, 346.000000)">
                <g id="Group_29">
                    <g id="Group_28" transform="translate(0.000000, 0.031000)">
                        <ellipse id="2" fill="#FFFFFF" cx="14.242" cy="14.242" rx="14.242" ry="14.242"></ellipse>
                        <g id="flaticon1479146049-svg" transform="translate(12.497359, 14.033602) rotate(45.000000) translate(-12.497359, -14.033602) translate(6.997359, 8.533602)" fill="#1A86E3">
                            <g id="Group_27" transform="translate(0.000000, -0.000000)">
                                <path d="M1.746,2.572 C3.50407796,2.86726867 5.12520915,3.70668935 6.381,4.972 C7.64390541,6.22955587 8.48290177,7.8498676 8.781,9.607 C8.85366568,10.0429166 9.2320759,10.3615778 9.674,10.359 C9.72589344,10.3580233 9.77766884,10.3536808 9.829,10.346 C10.0671009,10.3063557 10.2796176,10.1735381 10.4195965,9.97689218 C10.5595754,9.78024624 10.6154949,9.53595772 10.575,9.298 C10.2136419,7.17306325 9.19850281,5.21374685 7.671,3.693 C6.14985566,2.162933 4.18896365,1.14595406 2.062,0.784 C1.56921898,0.701695713 1.10194598,1.03119451 1.014,1.523 C0.970714369,1.75932559 1.0237165,2.00314799 1.16120476,2.20017694 C1.29869303,2.39720589 1.50925274,2.53108344 1.746,2.572 L1.746,2.572 Z" id="Path_18"></path>
                            </g>
                        </g>
                    </g>
                    <g id="Ellipse_8" transform="translate(6.000000, 12.000000)">
                        <circle id="Oval" fill="#1A86E3" cx="2" cy="2" r="2"></circle>
                        <circle id="Oval" stroke="#1A86E3" cx="2" cy="2" r="1.5"></circle>
                    </g>
                </g>
            </g>
        </g>
    </g>
</svg>