<?xml version="1.0" encoding="UTF-8" standalone="no"?>
<svg width="29px" height="29px" viewBox="0 0 29 29" version="1.1" xmlns="http://www.w3.org/2000/svg" xmlns:xlink="http://www.w3.org/1999/xlink">
    <!-- Generator: Sketch 42 (36781) - http://www.bohemiancoding.com/sketch -->
    <title>voice image tag</title>
    <desc>Created with Sketch.</desc>
    <defs></defs>
    <g id="Page-1" stroke="none" stroke-width="1" fill="none" fill-rule="evenodd">
        <g id="iPhone-7-Copy-2" transform="translate(-19.000000, -379.000000)">
            <g id="voice-image-tag" transform="translate(19.000000, 379.000000)">
                <g id="Group_29">
                    <g id="Group_28" transform="translate(0.000000, 0.031000)">
                        <ellipse id="Ellipse_7" fill="#FFFFFF" cx="14.242" cy="14.242" rx="14.242" ry="14.242"></ellipse>
                        <g id="flaticon1479146049-svg" transform="translate(16.386447, 14.387155) rotate(45.000000) translate(-16.386447, -14.387155) translate(7.886447, 6.387155)" fill="#1A86E3">
                            <g id="Group_27" transform="translate(0.000000, -0.000000)">
                                <path d="M1.746,7.572 C3.50407796,7.86726867 5.12520915,8.70668935 6.381,9.972 C7.64390541,11.2295559 8.48290177,12.8498676 8.781,14.607 C8.85366568,15.0429166 9.2320759,15.3615778 9.674,15.359 C9.72589344,15.3580233 9.77766884,15.3536808 9.829,15.346 C10.0671009,15.3063557 10.2796176,15.1735381 10.4195965,14.9768922 C10.5595754,14.7802462 10.6154949,14.5359577 10.575,14.298 C10.2136419,12.1730633 9.19850281,10.2137468 7.671,8.693 C6.14985566,7.162933 4.18896365,6.14595406 2.062,5.784 C1.56921898,5.70169571 1.10194598,6.03119451 1.014,6.523 C0.970714369,6.75932559 1.0237165,7.00314799 1.16120476,7.20017694 C1.29869303,7.39720589 1.50925274,7.53108344 1.746,7.572 L1.746,7.572 Z" id="Path_18"></path>
                                <path d="M16.335,14.039 C15.7408545,10.535392 14.0664525,7.30511416 11.546,4.8 C9.04128361,2.28119691 5.81217749,0.607907404 2.31,0.014 C1.81680972,-0.0674620006 1.350962,0.266309718 1.2695,0.7595 C1.188038,1.25269028 1.52180972,1.718538 2.015,1.8 C5.14474903,2.33300984 8.03037145,3.82877947 10.27,6.079 C12.5226709,8.31682979 14.0188725,11.2032855 14.549,14.334 C14.6216657,14.7699166 15.0000759,15.0885778 15.442,15.086 C15.4935593,15.0849802 15.5449993,15.0806379 15.596,15.073 C15.8322008,15.036077 16.0436156,14.90568 16.1826252,14.7111794 C16.3216348,14.5166788 16.3765494,14.2744311 16.335,14.039 Z" id="Path_19"></path>
                            </g>
                        </g>
                    </g>
                    <g id="Ellipse_8" transform="translate(6.000000, 12.000000)">
                        <circle id="Oval" fill="#1A86E3" cx="2" cy="2" r="2"></circle>
                        <circle id="Oval" stroke="#1A86E3" cx="2" cy="2" r="1.5"></circle>
                    </g>
                </g>
            </g>
        </g>
    </g>
</svg>